<?xml version="1.0" encoding="UTF-8" standalone="no"?>
<!-- Created with Inkscape (http://www.inkscape.org/) -->

<svg
   xmlns:dc="http://purl.org/dc/elements/1.1/"
   xmlns:cc="http://creativecommons.org/ns#"
   xmlns:rdf="http://www.w3.org/1999/02/22-rdf-syntax-ns#"
   xmlns:svg="http://www.w3.org/2000/svg"
   xmlns="http://www.w3.org/2000/svg"
   xmlns:sodipodi="http://sodipodi.sourceforge.net/DTD/sodipodi-0.dtd"
   xmlns:inkscape="http://www.inkscape.org/namespaces/inkscape"
   version="1.1"
   id="svg13666"
   xml:space="preserve"
   width="1065.8267"
   height="347.71655"
   viewBox="0 0 1065.8267 347.71655"
   sodipodi:docname="HW19ink.svg"
   inkscape:version="0.92.2 (5c3e80d, 2017-08-06)"><metadata
     id="metadata13672"><rdf:RDF><cc:Work
         rdf:about=""><dc:format>image/svg+xml</dc:format><dc:type
           rdf:resource="http://purl.org/dc/dcmitype/StillImage" /><dc:title></dc:title></cc:Work></rdf:RDF></metadata><defs
     id="defs13670" /><sodipodi:namedview
     pagecolor="#ffffff"
     bordercolor="#666666"
     borderopacity="1"
     objecttolerance="10"
     gridtolerance="10"
     guidetolerance="10"
     inkscape:pageopacity="0"
     inkscape:pageshadow="2"
     inkscape:window-width="875"
     inkscape:window-height="565"
     id="namedview13668"
     showgrid="false"
     inkscape:zoom="0.29366877"
     inkscape:cx="532.91333"
     inkscape:cy="173.85828"
     inkscape:window-x="4158"
     inkscape:window-y="402"
     inkscape:window-maximized="0"
     inkscape:current-layer="g13674" /><g
     id="g13674"
     inkscape:groupmode="layer"
     inkscape:label="HW19ink"
     transform="matrix(1.3333333,0,0,1.3333333,0,5.3595805e-6)"><g
       id="g13676"><g
         id="g13678"><path
           d="m 445.102,22.656 c -2.356,0 -4.254,1.895 -4.254,4.25 v 56.133 c 0.125,2.742 -1.168,3.633 -3.809,3.633 H 233.727 c -2.356,0 -4.25,1.898 -4.25,4.254 v 45.586 c 0,1.976 -0.969,3.582 -3.403,3.582 H 29.172 c -2.356,0 -4.25,1.898 -4.25,4.254 v 0.965 c 0,2.355 1.894,4.25 4.25,4.25 h 196.902 c 2.086,0 3.403,0.789 3.403,3.031 v 87.031 c 0,2.359 1.894,4.254 4.25,4.254 h 352.5 c 2.355,0 4.253,-1.895 4.253,-4.254 v -84.977 c 0,-2.671 1.715,-3.925 3.672,-3.925 h 176.176 c 2.356,0 4.25,-1.895 4.25,-4.25 v -3.239 c 0,-2.355 -1.894,-4.254 -4.25,-4.254 H 594.152 c -1.918,0 -3.672,-0.593 -3.672,-3.324 V 26.906 c 0,-2.355 -1.898,-4.25 -4.253,-4.25 z"
           style="fill:#00a5a5;fill-opacity:1;fill-rule:nonzero;stroke:#000000;stroke-width:1.125;stroke-linecap:butt;stroke-linejoin:miter;stroke-miterlimit:4;stroke-dasharray:none;stroke-opacity:1"
           id="path13680"
           inkscape:connector-curvature="0" /></g><g
         id="g13682"><path
           d="m 447.844,26.445 c -1.571,0 -2.836,1.262 -2.836,2.832 v 52.532 c 0.168,8.046 -3.406,9.031 -11.074,9.031 H 236.855 c -1.57,0 -2.835,1.265 -2.835,2.836 v 45.847 c 0,1.571 1.265,2.836 2.835,2.836 h 346.614 c 1.57,0 2.836,-1.265 2.836,-2.836 V 29.277 c 0,-1.57 -1.266,-2.832 -2.836,-2.832 z"
           style="fill:#ffffff;fill-opacity:1;fill-rule:nonzero;stroke:#000000;stroke-width:1.125;stroke-linecap:butt;stroke-linejoin:miter;stroke-miterlimit:4;stroke-dasharray:none;stroke-opacity:1"
           id="path13684"
           inkscape:connector-curvature="0" /></g><g
         id="g13686"><path
           d="m 238.348,146.91 h 343.968 c 1.571,0 2.836,1.266 2.836,2.836 v 86 c 0,1.57 -1.265,2.836 -2.836,2.836 H 238.348 c -1.571,0 -2.832,-1.266 -2.832,-2.836 v -86 c 0,-1.57 1.261,-2.836 2.832,-2.836 z"
           style="fill:#ffffff;fill-opacity:1;fill-rule:nonzero;stroke:#000000;stroke-width:1.125;stroke-linecap:butt;stroke-linejoin:miter;stroke-miterlimit:4;stroke-dasharray:none;stroke-opacity:1"
           id="path13688"
           inkscape:connector-curvature="0" /></g><g
         id="g13690"><path
           d="m 21.699,129.578 h 6.641 c 1.57,0 2.832,1.266 2.832,2.836 v 22.863 c 0,1.571 -1.262,2.836 -2.832,2.836 h -6.641 c -1.57,0 -2.836,-1.265 -2.836,-2.836 v -22.863 c 0,-1.57 1.266,-2.836 2.836,-2.836 z"
           style="fill:#ffffff;fill-opacity:1;fill-rule:nonzero;stroke:#ffffff;stroke-width:1.125;stroke-linecap:butt;stroke-linejoin:miter;stroke-miterlimit:4;stroke-dasharray:none;stroke-opacity:1"
           id="path13692"
           inkscape:connector-curvature="0" /></g><g
         id="g13694"><path
           d="m 769.711,126.223 h 5.519 c 1.571,0 2.833,1.265 2.833,2.836 v 33.492 c 0,1.57 -1.262,2.836 -2.833,2.836 h -5.519 c -1.57,0 -2.836,-1.266 -2.836,-2.836 v -33.492 c 0,-1.571 1.266,-2.836 2.836,-2.836 z"
           style="fill:#ffffff;fill-opacity:1;fill-rule:nonzero;stroke:#ffffff;stroke-width:1.125;stroke-linecap:butt;stroke-linejoin:miter;stroke-miterlimit:4;stroke-dasharray:none;stroke-opacity:1"
           id="path13696"
           inkscape:connector-curvature="0" /></g><path
         d="m 23.355,137.102 -8.437,13.355 c -0.816,1.27 -1.223,1.633 -1.973,1.813 l -0.453,0.113 v 0.683 c 2.063,-0.093 2.063,-0.093 2.516,-0.093 0.433,0 0.476,0 2.426,0.093 v -0.636 l -1.176,-0.067 c -0.363,-0.023 -0.703,-0.23 -0.703,-0.433 0,-0.18 0.156,-0.496 0.59,-1.246 l 2.312,-3.946 h 5.555 l -0.114,-0.793 h -4.875 l 4.036,-6.488 0.839,6.488 0.114,0.793 0.566,4.239 v 0.07 c 0,0.023 0.024,0.09 0.047,0.203 0.023,0.184 0.043,0.41 0.043,0.5 0,0.363 -0.34,0.566 -0.973,0.613 l -1,0.067 v 0.636 c 2.313,-0.093 2.313,-0.093 2.77,-0.093 0.453,0 0.453,0 2.765,0.093 v -0.636 l -0.589,-0.067 c -1.067,-0.16 -1.09,-0.16 -1.27,-1.179 l -1.973,-14.082 z"
         style="fill:#000000;fill-opacity:1;fill-rule:evenodd;stroke:none"
         id="path13698"
         inkscape:connector-curvature="0" /><path
         d="m 770.711,152.328 -0.113,0.59 2.086,-0.09 h 1.246 c 0.429,0 1.156,0.043 2.133,0.067 0.453,0.023 0.792,0.023 1.042,0.023 l 0.293,-1 c -0.996,0 -2.109,-0.113 -3.648,-0.34 0,-0.269 0.02,-0.43 0.09,-0.836 l 2.176,-12.543 c 0.339,0 0.453,-0.023 1.066,-0.043 0.703,-0.047 1.156,-0.07 1.566,-0.07 4.102,0 5.985,1.703 5.985,5.398 0,2.629 -0.86,5.012 -2.403,6.555 -1.226,1.246 -2.882,1.879 -4.832,1.879 l -0.293,1 c 1.61,0 2.719,-0.25 3.899,-0.84 3.539,-1.812 5.715,-5.215 5.715,-8.957 0,-2.199 -0.68,-3.789 -2.063,-4.738 -1.043,-0.75 -2.972,-1.156 -5.125,-1.137 l -4.605,0.07 h -0.227 c -0.203,0 -0.269,0 -2.562,-0.07 l -0.067,0.637 1.203,0.047 c 0.543,0.019 0.793,0.203 0.793,0.609 0,0.32 -0.089,1.024 -0.203,1.703 l -1.972,11.36 c -0.071,0.363 -0.321,0.543 -1,0.679 z"
         style="fill:#000000;fill-opacity:1;fill-rule:evenodd;stroke:none"
         id="path13700"
         inkscape:connector-curvature="0" /><path
         d="m 214.398,120.887 1.2,0.043 c 0.547,0.023 0.797,0.207 0.797,0.613 0,0.316 -0.094,1.02 -0.207,1.703 l -1.973,11.359 c -0.09,0.411 -0.363,0.567 -1.293,0.727 l -0.137,0.59 0.84,-0.024 c 0.613,-0.066 0.953,-0.066 1.227,-0.066 0.25,0 0.839,0.043 1.425,0.066 l 0.84,0.024 h 0.453 c 0.434,0.023 0.727,0.043 0.91,0.043 1.086,0 2.176,-0.293 3.219,-0.93 1.793,-1.062 2.789,-2.605 2.789,-4.308 0,-0.973 -0.316,-1.723 -0.929,-2.2 -0.59,-0.476 -1.27,-0.679 -2.836,-0.906 1.293,-0.453 1.859,-0.726 2.562,-1.359 1.043,-0.864 1.567,-1.93 1.567,-3.086 0,-1.836 -1.317,-2.926 -3.563,-2.926 -0.066,0 -0.293,0 -0.609,0.023 l -1.43,0.024 -0.113,0.859 c 0.476,-0.043 0.769,-0.066 1.043,-0.066 1.812,0 2.722,0.816 2.722,2.496 0,2.355 -1.679,3.785 -4.468,3.785 h -1.18 l -0.137,0.817 h 1.93 c 2.312,0 3.445,0.929 3.445,2.902 0,2.312 -1.633,3.992 -3.898,3.992 -0.453,0 -1.114,-0.023 -1.86,-0.09 -0.136,-0.023 -0.41,-0.047 -0.773,-0.07 l 1.156,-6.734 0.137,-0.817 1.113,-6.168 c 0.246,0 0.293,-0.023 0.77,-0.047 l 0.113,-0.859 c -0.273,0.023 -1.09,0.023 -1.359,0.023 -0.434,0 -1.137,-0.023 -2.246,-0.047 l -1.18,-0.023 z"
         style="fill:#000000;fill-opacity:1;fill-rule:evenodd;stroke:none"
         id="path13702"
         inkscape:connector-curvature="0" /><path
         d="m 607.121,124.176 h 0.613 c 0.114,-1.293 0.293,-2.246 0.61,-3.289 -1.723,-0.66 -3.016,-0.93 -4.422,-0.93 -1.836,0 -3.695,0.566 -5.281,1.633 -2.657,1.769 -3.993,4.422 -3.993,7.867 0,4.379 2.403,6.805 6.735,6.805 2.176,0 3.765,-0.5 5.805,-1.907 l 0.226,-0.816 -0.226,-0.156 c -2.133,1.289 -3.309,1.699 -5.055,1.699 -3.563,0 -5.512,-2.176 -5.512,-6.191 0,-2.493 0.77,-4.715 2.152,-6.121 1.067,-1.067 2.52,-1.614 4.29,-1.614 1.609,0 2.789,0.321 4.058,1.137 z"
         style="fill:#000000;fill-opacity:1;fill-rule:evenodd;stroke:none"
         id="path13704"
         inkscape:connector-curvature="0" /><g
         id="g13706"
         transform="matrix(0.987721,0.0261859,0.0258644,-1,0,0)"><path
           d="m 775.702,-105.473 c -0.102,4.369 -3.724,7.825 -8.092,7.726 -4.367,-0.103 -7.824,-3.725 -7.721,-8.089 0.078,-3.443 2.348,-6.314 5.439,-7.326 l 0.135,-5.731 5.272,0.122 -0.134,5.731 c 3.046,1.158 5.179,4.128 5.101,7.567 z"
           style="fill:none;stroke:#231f20;stroke-width:0.71280801;stroke-linecap:butt;stroke-linejoin:miter;stroke-miterlimit:4;stroke-dasharray:none;stroke-opacity:1"
           id="path13708"
           inkscape:connector-curvature="0" /></g><g
         id="g13710"
         transform="matrix(0.987721,0.0261859,0.0258644,-1,0,0)"><path
           d="m 769.51,-110.483 -2.054,7.146"
           style="fill:none;stroke:#231f20;stroke-width:1.14049399;stroke-linecap:butt;stroke-linejoin:miter;stroke-miterlimit:4;stroke-dasharray:none;stroke-opacity:1"
           id="path13712"
           inkscape:connector-curvature="0" /></g><path
         d="m 754.57,120.355 c 0.903,1.309 2.27,2.872 3.516,3.731 l -2.621,-0.246 -2.172,1.508 c 0.672,-1.368 1.117,-3.407 1.277,-4.993"
         style="fill:#231f20;fill-opacity:1;fill-rule:nonzero;stroke:none"
         id="path13714"
         inkscape:connector-curvature="0" /><g
         id="g13716"
         transform="matrix(0.987721,0.0261859,-0.0258644,1,0,0)"><path
           d="m 55.333,125.082 c -0.099,-4.364 -3.721,-7.824 -8.089,-7.721 -4.367,0.098 -7.824,3.72 -7.725,8.089 0.078,3.439 2.352,6.309 5.444,7.326 l 0.134,5.731 5.269,-0.123 -0.131,-5.731 c 3.043,-1.158 5.18,-4.128 5.098,-7.571 z"
           style="fill:none;stroke:#231f20;stroke-width:0.71280903;stroke-linecap:butt;stroke-linejoin:miter;stroke-miterlimit:4;stroke-dasharray:none;stroke-opacity:1"
           id="path13718"
           inkscape:connector-curvature="0" /></g><g
         id="g13720"
         transform="matrix(0.65679,1,0.987721,-0.664955,0,0)"><path
           d="m 109.356,-31.792 -1.711,5.95"
           style="fill:none;stroke:#231f20;stroke-width:0.950023;stroke-linecap:butt;stroke-linejoin:miter;stroke-miterlimit:4;stroke-dasharray:none;stroke-opacity:1"
           id="path13722"
           inkscape:connector-curvature="0" /></g><path
         d="m 47.207,122.402 c -0.535,1.5 -1.012,3.532 -0.992,5.059 l -1.309,-2.313 -2.468,-0.933 c 1.492,-0.227 3.394,-1.031 4.769,-1.813"
         style="fill:#231f20;fill-opacity:1;fill-rule:nonzero;stroke:none"
         id="path13724"
         inkscape:connector-curvature="0" /></g></g></svg>